# xmcd
# 
# Track frame offsets:
#     150
#     13137
#     32645
#     49757
#     66465
#     87452
#     105147
#     122352
#     136620
#     157302
#     179360
#     194475
#     214060
#     235340
# 
# Disc length: 3355
# 
# Revision: 4
# Processed by: cddbd v1.5.2PL0 Copyright (c) Steve Scherf et al.
# Submitted via: fre:ac v1.0.17
# 
DISCID=c00d190e
DTITLE=Rionegro and Solimões - Bate o Pé (Ao Vivo)
DYEAR=0
DGENRE=
TTITLE0=Saudade Pulou no Peito
TTITLE1=Tudo Acabou
TTITLE2=Depois de Você
TTITLE3=Casa Cheia
TTITLE4=Só Lembranças
TTITLE5=A Gente se Entrega
TTITLE6=Bate o Pé
TTITLE7=Peão Apaixonado
TTITLE8=Pororoca
TTITLE9=Tocando em Frente
TTITLE10=Uai, Uai
TTITLE11=Frio Da Madrugada
TTITLE12=De São Paulo a Belém
TTITLE13=Esperando na Janela
EXTD=
EXTT0=
EXTT1=
EXTT2=
EXTT3=
EXTT4=
EXTT5=
EXTT6=
EXTT7=
EXTT8=
EXTT9=
EXTT10=
EXTT11=
EXTT12=
EXTT13=
PLAYORDER=
